<?xml version="1.0" encoding="UTF-8" standalone="no"?>
<!-- Created with Inkscape (http://www.inkscape.org/) -->

<svg
   width="1920"
   height="1080"
   viewBox="0 0 1920 1080"
   version="1.1"
   id="svg1"
   inkscape:version="1.3.2 (091e20ef0f, 2023-11-25, custom)"
   sodipodi:docname="comms-contact.svg"
   inkscape:export-filename="comms-contact.jpg"
   inkscape:export-xdpi="96"
   inkscape:export-ydpi="96"
   xmlns:inkscape="http://www.inkscape.org/namespaces/inkscape"
   xmlns:sodipodi="http://sodipodi.sourceforge.net/DTD/sodipodi-0.dtd"
   xmlns="http://www.w3.org/2000/svg"
   xmlns:svg="http://www.w3.org/2000/svg"
   xmlns:serif="http://www.serif.com/">
  <sodipodi:namedview
     id="namedview1"
     pagecolor="#ffffff"
     bordercolor="#000000"
     borderopacity="0.25"
     inkscape:showpageshadow="2"
     inkscape:pageopacity="0.0"
     inkscape:pagecheckerboard="0"
     inkscape:deskcolor="#d1d1d1"
     inkscape:document-units="px"
     inkscape:zoom="0.55729167"
     inkscape:cx="959.99999"
     inkscape:cy="540.11215"
     inkscape:window-width="1920"
     inkscape:window-height="1008"
     inkscape:window-x="0"
     inkscape:window-y="0"
     inkscape:window-maximized="1"
     inkscape:current-layer="layer1" />
  <defs
     id="defs1" />
  <g
     inkscape:groupmode="layer"
     id="layer2"
     inkscape:label="Background"
     sodipodi:insensitive="true">
    <rect
       style="fill:#fff8e4;fill-opacity:1;stroke:none"
       id="rect1"
       width="1920"
       height="1080"
       x="0"
       y="0" />
  </g>
  <g
     inkscape:label="Layer 1"
     inkscape:groupmode="layer"
     id="layer1">
    <g
       id="g14"
       transform="translate(899.14159)" />
    <text
       xml:space="preserve"
       style="font-style:normal;font-variant:normal;font-weight:normal;font-stretch:normal;font-size:93.3333px;font-family:'PT Sans';-inkscape-font-specification:'PT Sans';text-align:center;text-anchor:middle;fill:#000000;fill-opacity:1;stroke:none;stroke-width:5"
       x="-538.73993"
       y="143.77888"
       id="text6"
       transform="rotate(-90)"><tspan
         sodipodi:role="line"
         id="tspan6"
         x="-538.73993"
         y="143.77888"
         style="font-style:normal;font-variant:normal;font-weight:normal;font-stretch:normal;font-size:93.3333px;font-family:Philosopher;-inkscape-font-specification:Philosopher">COMMUNICATION</tspan></text>
    <g
       id="Target_3"
       transform="matrix(0.670438,0,0,0.670438,352.42716,246.5214)"
       style="clip-rule:evenodd;fill-rule:evenodd;stroke-miterlimit:2;fill:#e78282;fill-opacity:1">
      <path
         d="m 127.5,222.96 c -52.637,0 -95.46,-42.823 -95.46,-95.46 0,-52.637 42.823,-95.46 95.46,-95.46 52.637,0 95.46,42.823 95.46,95.46 0,52.637 -42.823,95.46 -95.46,95.46 z m 0,-171.184 c -41.756,0 -75.724,33.971 -75.724,75.724 0,41.754 33.968,75.725 75.724,75.725 41.754,0 75.722,-33.971 75.722,-75.725 0,-41.753 -33.968,-75.724 -75.722,-75.724 z m 0,134.254 c -32.273,0 -58.53,-26.257 -58.53,-58.53 0,-32.273 26.257,-58.53 58.53,-58.53 32.273,0 58.53,26.257 58.53,58.53 0,32.273 -26.257,58.53 -58.53,58.53 z m 0,-98.478 c -22.028,0 -39.948,17.92 -39.948,39.948 0,22.029 17.92,39.948 39.948,39.948 22.029,0 39.948,-17.919 39.948,-39.948 0,-22.028 -17.919,-39.948 -39.948,-39.948 z m 0,62.704 c -12.548,0 -22.756,-10.208 -22.756,-22.756 0,-12.545 10.208,-22.754 22.756,-22.754 12.546,0 22.754,10.209 22.754,22.754 0,12.548 -10.208,22.756 -22.754,22.756 z"
         style="fill:#e78282;fill-opacity:1"
         id="path62" />
    </g>
    <g
       id="Humvee"
       transform="matrix(0.600939,0,0,0.605416,373.82087,527.19307)"
       style="clip-rule:evenodd;fill-rule:evenodd;stroke-miterlimit:2;fill:#d2893c;fill-opacity:1">
      <path
         d="M 69.17,0.578 0.723,17.617 0.145,48.809 1.877,48.377 3.033,61.518 c 0,0 6.245,-1.553 10.83,-2.455 -1.444,21.372 21.372,29.891 33.358,20.072 11.985,-9.82 8.232,-22.383 8.232,-22.383 l 12.996,2.6 3.61,3.32 75.814,2.021 1.01,-3.031 c 0,0 -0.144,-0.144 5.344,0.289 0.599,24.137 38.896,31.65 42.166,-1.59 l 6.066,-4.043 7.941,0.145 2.745,-25.127 -3.754,-1.588 -4.332,20.072 -7.799,0.289 -0.145,-14.007 2.744,2.744 h 3.465 L 202.891,30.758 180.941,24.404 138.92,23.971 135.742,7.654 V 0.578 Z m -20.217,45.633 13.43,0.287 2.023,6.5 -12.42,-3.611 z m -32.666,0.385 c 0.536,0.001 1.143,0.005 1.83,0.01 0.688,0.004 1.456,0.01 2.313,0.019 -0.109,0.113 -0.215,0.225 -0.319,0.338 -0.104,0.112 -0.205,0.226 -0.304,0.338 -0.1,0.112 -0.198,0.223 -0.293,0.334 -0.096,0.111 -0.19,0.222 -0.282,0.332 -0.182,0.22 -0.355,0.439 -0.521,0.654 -0.166,0.215 -0.326,0.428 -0.477,0.637 -0.15,0.208 -0.292,0.413 -0.427,0.613 -0.136,0.2 -0.263,0.396 -0.383,0.586 -0.121,0.19 -0.234,0.374 -0.34,0.553 -0.106,0.178 -0.206,0.352 -0.299,0.517 -0.092,0.166 -0.177,0.323 -0.256,0.473 -0.079,0.15 -0.152,0.294 -0.218,0.428 -0.067,0.134 -0.126,0.257 -0.18,0.373 -0.054,0.115 -0.102,0.222 -0.145,0.318 -0.084,0.192 -0.147,0.341 -0.187,0.444 -0.04,0.102 -0.059,0.156 -0.059,0.156 l -6.931,0.433 -1.155,-5.343 4.332,0.025 0.434,-2.191 c 0,0 0.071,-0.004 0.287,-0.012 0.108,-0.004 0.251,-0.01 0.439,-0.014 0.189,-0.004 0.421,-0.008 0.708,-0.011 0.286,-0.004 0.626,-0.006 1.029,-0.008 0.402,-0.002 0.868,-0.003 1.404,-0.002 z"
         style="fill:#d2893c;fill-rule:nonzero;fill-opacity:1"
         id="path66" />
    </g>
    <g
       id="Lungs"
       transform="matrix(0.962721,0,0,0.962721,-100.19387,420.78939)"
       style="clip-rule:evenodd;fill-rule:evenodd;stroke-miterlimit:2;fill:#b5dfed;fill-opacity:1">
      <g
         transform="matrix(0.727409,0,0,0.727409,176.73,162.554)"
         id="g9"
         style="fill:#b5dfed;fill-opacity:1">
        <path
           d="m 516.9,260.526 c 0,0 2.634,26.964 0.975,43.553 -1.659,16.589 -19.631,37.879 -32.902,43.961 -13.271,6.083 -27.386,13.825 -39.551,9.124 -12.165,-4.7 -11.349,-26.542 -11.349,-38.984 0,-12.442 -1.356,-36.074 15.786,-63.199 17.142,-27.126 30.137,-37.166 40.644,-40.207 10.506,-3.042 14.377,2.488 17.418,6.635 3.042,4.148 6.912,21.29 6.912,21.29 3.012,-1.746 3.758,-0.651 3.871,-16.036 0.236,-32.095 -0.877,-38.577 7.009,-38.432 l 0.725,63.415 c -0.046,2.908 -2.792,5.84 -9.538,8.88 z"
           style="fill:#b5dfed;fill-opacity:1"
           id="path9" />
      </g>
      <g
         transform="matrix(-0.727409,0,0,0.727409,941.147,162.554)"
         id="g10"
         style="fill:#b5dfed;fill-opacity:1">
        <path
           d="m 516.9,260.526 c 0,0 2.634,26.964 0.975,43.553 -1.659,16.589 -19.631,37.879 -32.902,43.961 -13.271,6.083 -27.386,13.825 -39.551,9.124 -12.165,-4.7 -11.349,-26.542 -11.349,-38.984 0,-12.442 -1.356,-36.074 15.786,-63.199 17.142,-27.126 30.137,-37.166 40.644,-40.207 10.506,-3.042 14.377,2.488 17.418,6.635 3.042,4.148 6.912,21.29 6.912,21.29 3.012,-1.746 3.758,-0.651 3.871,-16.036 0.236,-32.095 -0.877,-38.577 7.009,-38.432 l 0.725,63.415 c -0.046,2.908 -2.792,5.84 -9.538,8.88 z"
           style="fill:#b5dfed;fill-opacity:1"
           id="path10" />
      </g>
    </g>
    <text
       xml:space="preserve"
       style="font-style:normal;font-variant:normal;font-weight:normal;font-stretch:normal;font-size:53.3333px;font-family:'PT Sans';-inkscape-font-specification:'PT Sans';text-align:center;text-anchor:middle;fill:#000000;fill-opacity:1;stroke:none;stroke-width:10;stroke-dasharray:none;stroke-opacity:1"
       x="651.64105"
       y="345.33557"
       id="text28"><tspan
         sodipodi:role="line"
         id="tspan28"
         x="651.64105"
         y="345.33557"><tspan
   style="font-weight:bold"
   id="tspan31">A</tspan>ccuracy</tspan></text>
    <text
       xml:space="preserve"
       style="font-style:normal;font-variant:normal;font-weight:normal;font-stretch:normal;font-size:53.3333px;font-family:'PT Sans';-inkscape-font-specification:'PT Sans';text-align:center;text-anchor:middle;fill:#000000;fill-opacity:1;stroke:none;stroke-width:10;stroke-dasharray:none;stroke-opacity:1"
       x="627.32104"
       y="566.01703"
       id="text29"><tspan
         sodipodi:role="line"
         id="tspan29"
         x="627.32104"
         y="566.01703"><tspan
   style="font-weight:bold"
   id="tspan32">B</tspan>revity</tspan></text>
    <text
       xml:space="preserve"
       style="font-style:normal;font-variant:normal;font-weight:normal;font-stretch:normal;font-size:53.3333px;font-family:'PT Sans';-inkscape-font-specification:'PT Sans';text-align:center;text-anchor:middle;fill:#000000;fill-opacity:1;stroke:none;stroke-width:10;stroke-dasharray:none;stroke-opacity:1"
       x="622.84106"
       y="786.9118"
       id="text30"><tspan
         sodipodi:role="line"
         id="tspan30"
         x="622.84106"
         y="786.9118"><tspan
   style="font-weight:bold"
   id="tspan33">C</tspan>larity</tspan></text>
    <text
       xml:space="preserve"
       style="font-style:normal;font-variant:normal;font-weight:normal;font-stretch:normal;font-size:93.3333px;font-family:'PT Sans';-inkscape-font-specification:'PT Sans';text-align:center;text-anchor:middle;fill:#000000;fill-opacity:1;stroke:none;stroke-width:5"
       x="461.548"
       y="161.25961"
       id="text34"><tspan
         sodipodi:role="line"
         id="tspan34"
         x="461.548"
         y="161.25961"
         style="font-style:normal;font-variant:normal;font-weight:normal;font-stretch:normal;font-size:93.3333px;font-family:Philosopher;-inkscape-font-specification:Philosopher">ABC</tspan></text>
    <text
       xml:space="preserve"
       style="font-style:normal;font-variant:normal;font-weight:normal;font-stretch:normal;font-size:93.3333px;font-family:'PT Sans';-inkscape-font-specification:'PT Sans';text-align:center;text-anchor:middle;fill:#000000;fill-opacity:1;stroke:none;stroke-width:5"
       x="1383.9519"
       y="161.25961"
       id="text35"><tspan
         sodipodi:role="line"
         id="tspan35"
         x="1383.9519"
         y="161.25961"
         style="font-style:normal;font-variant:normal;font-weight:normal;font-stretch:normal;font-size:93.3333px;font-family:Philosopher;-inkscape-font-specification:Philosopher">Contact Reporting</tspan></text>
    <g
       id="g1"
       transform="translate(831.74236,251.87739)"
       style="fill:#4e4e4e;fill-opacity:1">
      <g
         id="Radio"
         transform="matrix(1.11142,0,0,1.11142,-466.048,-228.801)"
         style="clip-rule:evenodd;fill-rule:evenodd;stroke-miterlimit:2;fill:#4e4e4e;fill-opacity:1">
        <path
           d="m 592.783,304.565 26.351,26.351 32.711,-32.71 4.658,1.542 17.134,-17.134 -1.543,-4.658 7.789,-7.788 -15.501,-15.501 34.268,-34.268 -4.65,-4.65 -34.269,34.268 -6.2,-6.201 -9.346,9.346 -3.1,-3.1 -6.231,6.231 3.101,3.1 -4.673,4.673 -3.101,-3.1 -6.23,6.23 3.1,3.101 z"
           style="fill:#4e4e4e;fill-opacity:1"
           id="path1" />
      </g>
    </g>
    <g
       id="IFV-Side"
       serif:id="IFV Side"
       transform="matrix(-0.403613,0,0,0.403613,1216.1492,592.68683)"
       style="clip-rule:evenodd;fill-rule:evenodd;stroke-miterlimit:2;fill:#159458;fill-opacity:1">
      <path
         d="m 430.355,311.547 c 0,0 -175.137,-0.562 -184.414,-0.562 -9.277,0 -44.061,-14.83 -53.937,-23.59 -3.228,-2.864 -5.008,-8.178 -3.273,-10.721 l -5.483,-2.957 4.311,-7.556 0.03,-9.843 16.249,-10.364 29.796,-15.344 2.382,3.354 37.093,-17.793 48.86,-0.243 0.076,-3.386 -8.608,0.001 -5.445,-4.422 0.166,-1.725 -12.222,-3.081 0.009,-1.263 -71.008,-0.951 0.08,-2.541 70.615,0.032 -0.005,-1.082 12.365,-4.133 6.39,-0.077 1.573,-2.52 4.253,-0.007 11.211,-11.067 15.015,-0.006 1.679,-6.081 14.629,-0.029 v -2.501 l 3.254,-0.086 -0.048,-34.475 0.998,-0.039 0.094,34.509 -0.042,7.75 1.65,0.159 4.461,-1.953 20.879,-0.06 6.153,8.832 5.099,-0.006 -0.126,-33.875 1.787,0.002 0.152,33.796 9.38,0.122 4.923,9.273 5.703,0.284 -0.03,17.334 -24.394,-0.051 0.118,4.212 82.963,-0.063 -0.374,4.249 11.274,2.185 -1.72,10.799 5.487,1.02 -6.632,29.109 -14.642,-2.103 -1.034,10.465 -0.846,1.488 c 0,0 1.808,1.917 0.828,8.597 -1.126,7.676 -14.416,16.066 -22.3,20.401 -5.003,2.75 -14.024,8.583 -25.402,8.583 z"
         style="fill:#159458;fill-opacity:1"
         id="path70" />
    </g>
    <g
       id="Compass"
       transform="matrix(1.26838,0,0,1.26838,582.88563,176.85671)"
       style="clip-rule:evenodd;fill-rule:evenodd;stroke-miterlimit:2;fill:#824b11;fill-opacity:1">
      <path
         d="m 346.059,264.219 v 0.56 l 1.504,0.278 c -0.109,0.559 -0.334,1.173 -0.555,1.787 l -1.952,6.09 -2.227,-7.877 1.504,-0.278 v -0.56 h -4.291 v 0.56 l 1.224,0.278 2.954,10.447 h 0.836 l 2.787,-8.269 2.62,8.269 h 0.836 l 3.343,-10.447 1.057,-0.278 v -0.56 h -3.619 v 0.56 l 1.613,0.278 -2.449,7.821 -2.452,-7.821 1.558,-0.278 v -0.56 z m 43.967,-9.441 c -4.513,0.838 -10.643,5.642 -11.42,11.509 l -15.941,3.518 v 0.111 l 15.941,3.521 c 0.777,5.864 6.907,10.669 11.42,11.45 l 3.514,15.978 h 0.109 l 3.51,-15.978 c 4.516,-0.781 10.646,-5.586 11.424,-11.45 l 15.937,-3.521 v -0.167 l -15.937,-3.519 c -0.778,-5.866 -6.908,-10.669 -11.424,-11.452 l -3.51,-15.976 h -0.109 z m -11.42,17.765 -12.093,-2.57 v -0.111 h 12.093 z m 1.337,-2.681 c 0,-7.653 4.901,-13.687 13.651,-13.687 8.75,0 13.652,6.034 13.652,13.687 0,7.653 -4.902,13.685 -13.652,13.685 -8.75,0 -13.651,-6.032 -13.651,-13.685 z m 16.212,-49.83 v 0.559 l 1.451,0.279 v 7.766 l -7.468,-8.604 h -3.063 v 0.559 l 1.392,0.279 v 9.385 l -1.392,0.224 v 0.559 h 4.066 v -0.559 l -1.558,-0.224 v -8.267 c 1.726,1.9 7.019,7.988 8.077,9.161 h 1.061 V 220.87 l 1.392,-0.279 v -0.559 z m 0.113,88.708 c -0.781,-0.055 -1.558,-0.335 -2.34,-0.335 -2.172,0 -3.622,1.34 -3.622,3.018 0,4.021 5.294,3.183 5.294,5.864 0,1.397 -0.89,2.067 -2.228,2.067 -0.668,0 -1.896,-0.335 -2.231,-1.005 -0.221,-0.447 -0.447,-1.118 -0.556,-2.011 l -0.501,0.168 0.167,2.624 c 0.778,0.559 2.173,0.838 3.23,0.838 2.341,0 3.79,-1.452 3.79,-3.408 0,-3.24 -5.294,-2.681 -5.294,-5.529 0,-1.173 0.669,-1.843 1.839,-1.843 1.395,0 1.896,0.892 2.173,2.011 h 0.501 z m -5.348,-53.962 2.561,-12.12 h 0.113 v 12.12 z m 5.348,30.109 -2.561,12.122 h -0.113 v -12.122 z m 12.315,-17.708 12.15,2.57 v 0.113 h -12.15 z m 29.701,2.794 0.279,1.229 h 0.502 c -0.113,-0.894 -0.113,-2.346 0,-3.183 h -0.502 l -0.279,1.172 h -2.783 v -3.966 h 3.343 l 0.443,1.451 h 0.501 l -0.221,-2.457 h -7.246 v 0.56 l 1.504,0.278 v 9.385 l -1.504,0.279 v 0.502 h 7.968 l 0.669,-2.68 h -0.61 l -0.614,1.618 h -4.233 v -4.245 z"
         style="fill:#824b11;fill-opacity:1"
         id="path17" />
    </g>
    <g
       id="Paracute"
       transform="matrix(3.42041,0,0,3.42041,234.63345,-92.181022)"
       style="clip-rule:evenodd;fill-rule:evenodd;stroke-miterlimit:2;fill:#cacecc;fill-opacity:1">
      <path
         d="m 240.718,275.229 c -0.531,-1.029 -2.075,-3.47 -5.102,-4.281 -3.876,-1.039 -7.037,1.658 -7.037,1.658 0,0 8.083,-13.778 22.439,-9.932 14.355,3.847 14.317,19.559 14.317,19.559 0,0 -0.068,-0.168 -0.212,-0.443 l -23.783,17.629 -0.121,-0.175 -0.193,0.091 -11.958,-27.032 0.452,-0.242 11.383,25.933 -0.273,-22.764 z m 0.616,23.297 11.839,-19.672 c -0.34,-0.685 -2.026,-3.744 -5.46,-4.665 -3.41,-0.913 -6.065,0.946 -6.654,1.406 z m 0.496,0 23.084,-17.111 c -0.681,-1.157 -2.225,-3.213 -4.9,-3.929 -2.967,-0.796 -5.428,0.566 -6.367,1.204 l 0.088,0.054 z"
         style="fill:#cacecc;fill-opacity:1"
         id="path37" />
    </g>
    <text
       xml:space="preserve"
       style="font-style:normal;font-variant:normal;font-weight:normal;font-stretch:normal;font-size:53.3333px;font-family:'PT Sans';-inkscape-font-specification:'PT Sans';text-align:start;text-anchor:start;fill:#000000;fill-opacity:1;stroke:none;stroke-width:10;stroke-dasharray:none;stroke-opacity:1"
       x="1201.1167"
       y="352.97519"
       id="text37"><tspan
         sodipodi:role="line"
         id="tspan37"
         x="1201.1167"
         y="352.97519">1. Sighting/Contact</tspan></text>
    <text
       xml:space="preserve"
       style="font-style:normal;font-variant:normal;font-weight:normal;font-stretch:normal;font-size:53.3333px;font-family:'PT Sans';-inkscape-font-specification:'PT Sans';text-align:start;text-anchor:start;fill:#000000;fill-opacity:1;stroke:none;stroke-width:10;stroke-dasharray:none;stroke-opacity:1"
       x="1201.5433"
       y="537.98596"
       id="text38"><tspan
         sodipodi:role="line"
         id="tspan38"
         x="1201.5433"
         y="537.98596">2. Direction</tspan></text>
    <text
       xml:space="preserve"
       style="font-style:normal;font-variant:normal;font-weight:normal;font-stretch:normal;font-size:53.3333px;font-family:'PT Sans';-inkscape-font-specification:'PT Sans';text-align:start;text-anchor:start;fill:#000000;fill-opacity:1;stroke:none;stroke-width:10;stroke-dasharray:none;stroke-opacity:1"
       x="1200.1567"
       y="712.33008"
       id="text39"><tspan
         sodipodi:role="line"
         id="tspan39"
         x="1200.1567"
         y="712.33008">3. What is it?</tspan></text>
    <text
       xml:space="preserve"
       style="font-style:normal;font-variant:normal;font-weight:normal;font-stretch:normal;font-size:53.3333px;font-family:'PT Sans';-inkscape-font-specification:'PT Sans';text-align:start;text-anchor:start;fill:#000000;fill-opacity:1;stroke:none;stroke-width:10;stroke-dasharray:none;stroke-opacity:1"
       x="1203.7833"
       y="886.62085"
       id="text40"><tspan
         sodipodi:role="line"
         id="tspan40"
         x="1203.7833"
         y="886.62085">4. Extra details</tspan></text>
  </g>
</svg>
