<?xml version="1.0" encoding="UTF-8" standalone="no"?>
<!-- Created with Inkscape (http://www.inkscape.org/) -->

<svg
   width="1920"
   height="1080"
   viewBox="0 0 1920 1080"
   version="1.1"
   id="svg1"
   inkscape:version="1.3.2 (091e20ef0f, 2023-11-25, custom)"
   sodipodi:docname="pieing.svg"
   xml:space="preserve"
   inkscape:export-filename="pieing.jpg"
   inkscape:export-xdpi="96"
   inkscape:export-ydpi="96"
   xmlns:inkscape="http://www.inkscape.org/namespaces/inkscape"
   xmlns:sodipodi="http://sodipodi.sourceforge.net/DTD/sodipodi-0.dtd"
   xmlns="http://www.w3.org/2000/svg"
   xmlns:svg="http://www.w3.org/2000/svg"><sodipodi:namedview
     id="namedview1"
     pagecolor="#ffffff"
     bordercolor="#000000"
     borderopacity="0.25"
     inkscape:showpageshadow="2"
     inkscape:pageopacity="0.0"
     inkscape:pagecheckerboard="0"
     inkscape:deskcolor="#d1d1d1"
     inkscape:document-units="px"
     inkscape:zoom="0.55729167"
     inkscape:cx="960"
     inkscape:cy="540.11215"
     inkscape:window-width="1920"
     inkscape:window-height="1024"
     inkscape:window-x="0"
     inkscape:window-y="0"
     inkscape:window-maximized="1"
     inkscape:current-layer="layer1" /><defs
     id="defs1"><marker
       style="overflow:visible"
       id="ArrowTriangleStylized"
       refX="0"
       refY="0"
       orient="auto-start-reverse"
       inkscape:stockid="Stylized triangle arrow"
       markerWidth="1"
       markerHeight="1"
       viewBox="0 0 1 1"
       inkscape:isstock="true"
       inkscape:collect="always"
       preserveAspectRatio="xMidYMid"><path
         transform="scale(0.5)"
         style="fill:context-stroke;fill-rule:evenodd;stroke:context-stroke;stroke-width:1pt"
         d="m 6,0 c -3,1 -7,3 -9,5 0,0 0,-4 2,-5 -2,-1 -2,-5 -2,-5 2,2 6,4 9,5 z"
         id="path4" /></marker></defs><g
     inkscape:groupmode="layer"
     id="layer2"
     inkscape:label="Background"
     sodipodi:insensitive="true"><rect
       style="fill:#fff8e4;fill-opacity:1;stroke:none"
       id="rect1"
       width="1920"
       height="1080"
       x="0"
       y="0" /></g><g
     inkscape:label="Layer 1"
     inkscape:groupmode="layer"
     id="layer1"><path
       style="fill:#b48383;fill-opacity:0.646231;stroke:none;stroke-width:5;stroke-linecap:round;stroke-linejoin:round"
       d="m 1319.5297,768.76992 348.4874,2.3e-4 1.5442,-178.01687 -350.255,161.97262 z"
       id="path10"
       sodipodi:nodetypes="ccccc" /><path
       style="fill:#b48383;fill-opacity:0.646231;stroke:none;stroke-width:5;stroke-linecap:round;stroke-linejoin:round"
       d="m 1090.985,768.76992 -598.50368,2.3e-4 -1.54417,-223.50911 600.34185,204.69173 z"
       id="path9"
       sodipodi:nodetypes="ccccc" /><g
       id="g14"
       transform="translate(899.14159)" /><text
       xml:space="preserve"
       style="font-style:normal;font-variant:normal;font-weight:normal;font-stretch:normal;font-size:93.3333px;font-family:'PT Sans';-inkscape-font-specification:'PT Sans';text-align:center;text-anchor:middle;fill:#000000;fill-opacity:1;stroke:none;stroke-width:5"
       x="-538.73993"
       y="143.77888"
       id="text6"
       transform="rotate(-90)"><tspan
         sodipodi:role="line"
         id="tspan6"
         x="-538.73993"
         y="143.77888"
         style="font-style:normal;font-variant:normal;font-weight:normal;font-stretch:normal;font-size:93.3333px;font-family:Philosopher;-inkscape-font-specification:Philosopher">PIEING STRUCTURES</tspan></text><path
       style="fill:none;fill-opacity:1;stroke:#444444;stroke-width:20;stroke-dasharray:none;stroke-opacity:1"
       d="m 1090.985,768.76992 -598.50368,2.3e-4 V 130.55416 H 1674.146 v 638.21576 h -359.8091"
       id="path46"
       sodipodi:nodetypes="cccccc" /><g
       id="g8"
       transform="rotate(97.487569,807.80152,789.36511)"><circle
         style="fill:#e04756;fill-opacity:1;stroke:#444444;stroke-width:2;stroke-dasharray:none;stroke-opacity:1"
         id="circle3"
         cx="-494.6235"
         cy="820.66687"
         r="32.238113"
         transform="rotate(-97.946486)" /><path
         style="fill:#444444;fill-opacity:1;stroke:none;stroke-width:5;stroke-dasharray:none;stroke-opacity:1"
         d="m 855.77936,396.28658 -21.7084,-14.17757 16.23288,-17.70701 -9.55817,16.7753 z"
         id="path6"
         sodipodi:nodetypes="ccccc" /></g><g
       id="g13"
       transform="rotate(-57.463997,1522.02,160.66892)"><g
         id="g10"
         transform="translate(12.59262,18.204695)"><circle
           style="fill:#e04756;fill-opacity:1;stroke:#444444;stroke-width:2;stroke-dasharray:none;stroke-opacity:1"
           id="circle12"
           cx="848.23694"
           cy="381.76309"
           r="32.238113" /><path
           style="fill:#444444;fill-opacity:1;stroke:none;stroke-width:5;stroke-dasharray:none;stroke-opacity:1"
           d="m 832.06924,353.87221 17.04258,-19.53993 15.29282,18.52497 -15.29282,-11.78554 z"
           id="path12"
           sodipodi:nodetypes="ccccc" /></g></g><g
       id="g49"
       transform="rotate(47.252107,408.90858,854.44373)"><circle
         style="fill:#e04756;fill-opacity:1;stroke:#444444;stroke-width:2;stroke-dasharray:none;stroke-opacity:1"
         id="circle48"
         cx="848.23694"
         cy="381.76309"
         r="32.238113" /><path
         style="fill:#444444;fill-opacity:1;stroke:none;stroke-width:5;stroke-dasharray:none;stroke-opacity:1"
         d="m 832.06924,353.87221 17.04258,-19.53993 15.29282,18.52497 -15.29282,-11.78554 z"
         id="path48"
         sodipodi:nodetypes="ccccc" /></g><path
       style="fill:none;fill-opacity:1;stroke:#444444;stroke-width:6;stroke-dasharray:none;stroke-opacity:1;marker-end:url(#ArrowTriangleStylized)"
       d="m 1403.7638,899.46077 c -95.7568,107.13353 -308.0399,104.39393 -360.7084,36.92626"
       id="path53"
       sodipodi:nodetypes="cc" /><g
       style="fill:#e2221c;fill-opacity:1;stroke:#f4f4f4;stroke-width:0.3;stroke-dasharray:none;stroke-opacity:1"
       id="g62"
       transform="matrix(3.8283351,0,0,3.8283351,518.73952,657.99264)"><path
         opacity="0.4"
         d="M 21.7605,15.92 15.3605,4.4 C 14.5005,2.85 13.3105,2 12.0005,2 10.6905,2 9.50047,2.85 8.64047,4.4 l -6.4,11.52 c -0.81,1.47 -0.9,2.88 -0.25,3.99 0.65,1.11 1.93,1.72 3.61,1.72 H 18.4005 c 1.68,0 2.96,-0.61 3.61,-1.72 0.65,-1.11 0.56,-2.53 -0.25,-3.99 z"
         fill="#292d32"
         id="path1"
         style="fill:#e2221c;fill-opacity:1;stroke:#f4f4f4;stroke-width:0.3;stroke-dasharray:none;stroke-opacity:1" /><path
         d="m 12,14.75 c -0.41,0 -0.75,-0.34 -0.75,-0.75 V 9 c 0,-0.41 0.34,-0.75 0.75,-0.75 0.41,0 0.75,0.34 0.75,0.75 v 5 c 0,0.41 -0.34,0.75 -0.75,0.75 z"
         fill="#292d32"
         id="path2"
         style="fill:#e2221c;fill-opacity:1;stroke:#f4f4f4;stroke-width:0.3;stroke-dasharray:none;stroke-opacity:1" /><path
         d="m 12,18.0001 c -0.06,0 -0.13,-0.01 -0.2,-0.02 -0.06,-0.01 -0.12,-0.03 -0.18,-0.06 -0.06,-0.02 -0.12,-0.05 -0.18,-0.09 -0.05,-0.04 -0.1,-0.08 -0.15,-0.12 -0.18,-0.19 -0.29,-0.45 -0.29,-0.71 0,-0.26 0.11,-0.52 0.29,-0.71 0.05,-0.04 0.1,-0.08 0.15,-0.12 0.06,-0.04 0.12,-0.07 0.18,-0.09 0.06,-0.03 0.12,-0.05 0.18,-0.06 0.13,-0.03 0.27,-0.03 0.39,0 0.07,0.01 0.13,0.03 0.19,0.06 0.06,0.02 0.12,0.05 0.18,0.09 0.05,0.04 0.1,0.08 0.15,0.12 0.18,0.19 0.29,0.45 0.29,0.71 0,0.26 -0.11,0.52 -0.29,0.71 -0.05,0.04 -0.1,0.08 -0.15,0.12 -0.06,0.04 -0.12,0.07 -0.18,0.09 -0.06,0.03 -0.12,0.05 -0.19,0.06 -0.06,0.01 -0.13,0.02 -0.19,0.02 z"
         fill="#292d32"
         id="path3"
         style="fill:#e2221c;fill-opacity:1;stroke:#f4f4f4;stroke-width:0.3;stroke-dasharray:none;stroke-opacity:1" /></g><path
       style="fill:#444444;fill-opacity:1;stroke:#000000;stroke-width:5;stroke-linecap:round;stroke-linejoin:round;stroke-dasharray:15, 15;stroke-dashoffset:0;stroke-opacity:1"
       d="M 1095.6293,748.7493 506.81337,548.17734"
       id="path76"
       sodipodi:nodetypes="cc" /><path
       style="fill:#444444;fill-opacity:1;stroke:#000000;stroke-width:5;stroke-linecap:round;stroke-linejoin:round;stroke-dasharray:15, 15;stroke-dashoffset:0;stroke-opacity:1"
       d="M 1312.7473,752.92292 1654.9385,593.90617"
       id="path77"
       sodipodi:nodetypes="cc" /><g
       style="fill:#e2221c;fill-opacity:1;stroke:#f4f4f4;stroke-width:0.3;stroke-dasharray:none;stroke-opacity:1"
       id="g9"
       transform="matrix(3.8283351,0,0,3.8283351,1556.7126,657.99264)"><path
         opacity="0.4"
         d="M 21.7605,15.92 15.3605,4.4 C 14.5005,2.85 13.3105,2 12.0005,2 10.6905,2 9.50047,2.85 8.64047,4.4 l -6.4,11.52 c -0.81,1.47 -0.9,2.88 -0.25,3.99 0.65,1.11 1.93,1.72 3.61,1.72 H 18.4005 c 1.68,0 2.96,-0.61 3.61,-1.72 0.65,-1.11 0.56,-2.53 -0.25,-3.99 z"
         fill="#292d32"
         id="path5"
         style="fill:#e2221c;fill-opacity:1;stroke:#f4f4f4;stroke-width:0.3;stroke-dasharray:none;stroke-opacity:1" /><path
         d="m 12,14.75 c -0.41,0 -0.75,-0.34 -0.75,-0.75 V 9 c 0,-0.41 0.34,-0.75 0.75,-0.75 0.41,0 0.75,0.34 0.75,0.75 v 5 c 0,0.41 -0.34,0.75 -0.75,0.75 z"
         fill="#292d32"
         id="path7"
         style="fill:#e2221c;fill-opacity:1;stroke:#f4f4f4;stroke-width:0.3;stroke-dasharray:none;stroke-opacity:1" /><path
         d="m 12,18.0001 c -0.06,0 -0.13,-0.01 -0.2,-0.02 -0.06,-0.01 -0.12,-0.03 -0.18,-0.06 -0.06,-0.02 -0.12,-0.05 -0.18,-0.09 -0.05,-0.04 -0.1,-0.08 -0.15,-0.12 -0.18,-0.19 -0.29,-0.45 -0.29,-0.71 0,-0.26 0.11,-0.52 0.29,-0.71 0.05,-0.04 0.1,-0.08 0.15,-0.12 0.06,-0.04 0.12,-0.07 0.18,-0.09 0.06,-0.03 0.12,-0.05 0.18,-0.06 0.13,-0.03 0.27,-0.03 0.39,0 0.07,0.01 0.13,0.03 0.19,0.06 0.06,0.02 0.12,0.05 0.18,0.09 0.05,0.04 0.1,0.08 0.15,0.12 0.18,0.19 0.29,0.45 0.29,0.71 0,0.26 -0.11,0.52 -0.29,0.71 -0.05,0.04 -0.1,0.08 -0.15,0.12 -0.06,0.04 -0.12,0.07 -0.18,0.09 -0.06,0.03 -0.12,0.05 -0.19,0.06 -0.06,0.01 -0.13,0.02 -0.19,0.02 z"
         fill="#292d32"
         id="path8"
         style="fill:#e2221c;fill-opacity:1;stroke:#f4f4f4;stroke-width:0.3;stroke-dasharray:none;stroke-opacity:1" /></g><text
       xml:space="preserve"
       style="font-size:53.3333px;font-family:'PT Sans';-inkscape-font-specification:'PT Sans';text-align:center;text-anchor:middle;fill:#000000;fill-opacity:1;stroke:none;stroke-width:5;stroke-linecap:round;stroke-linejoin:round"
       x="-541.06665"
       y="241.79167"
       id="text10"
       transform="rotate(-90)"><tspan
         sodipodi:role="line"
         id="tspan10"
         x="-541.06665"
         y="241.79167">&quot;window shopping&quot;</tspan></text></g></svg>
