<?xml version="1.0" encoding="UTF-8" standalone="no"?>
<!-- Created with Inkscape (http://www.inkscape.org/) -->

<svg
   width="1920"
   height="1080"
   viewBox="0 0 1920 1080"
   version="1.1"
   id="svg1"
   inkscape:version="1.3.2 (091e20ef0f, 2023-11-25, custom)"
   sodipodi:docname="structure-clearing.svg"
   xml:space="preserve"
   inkscape:export-filename="structure-clearing.jpg"
   inkscape:export-xdpi="96"
   inkscape:export-ydpi="96"
   xmlns:inkscape="http://www.inkscape.org/namespaces/inkscape"
   xmlns:sodipodi="http://sodipodi.sourceforge.net/DTD/sodipodi-0.dtd"
   xmlns="http://www.w3.org/2000/svg"
   xmlns:svg="http://www.w3.org/2000/svg"><sodipodi:namedview
     id="namedview1"
     pagecolor="#ffffff"
     bordercolor="#000000"
     borderopacity="0.25"
     inkscape:showpageshadow="2"
     inkscape:pageopacity="0.0"
     inkscape:pagecheckerboard="0"
     inkscape:deskcolor="#d1d1d1"
     inkscape:document-units="px"
     inkscape:zoom="0.6546875"
     inkscape:cx="960"
     inkscape:cy="540.71599"
     inkscape:window-width="1920"
     inkscape:window-height="1008"
     inkscape:window-x="0"
     inkscape:window-y="0"
     inkscape:window-maximized="1"
     inkscape:current-layer="layer1" /><defs
     id="defs1"><marker
       style="overflow:visible"
       id="marker79"
       refX="0"
       refY="0"
       orient="auto-start-reverse"
       inkscape:stockid="Stylized triangle arrow"
       markerWidth="1"
       markerHeight="1"
       viewBox="0 0 1 1"
       inkscape:isstock="true"
       inkscape:collect="always"
       preserveAspectRatio="xMidYMid"><path
         transform="scale(0.5)"
         style="fill:context-stroke;fill-rule:evenodd;stroke:context-stroke;stroke-width:1pt"
         d="m 6,0 c -3,1 -7,3 -9,5 0,0 0,-4 2,-5 -2,-1 -2,-5 -2,-5 2,2 6,4 9,5 z"
         id="path79" /></marker><marker
       style="overflow:visible"
       id="ArrowTriangleStylized"
       refX="0"
       refY="0"
       orient="auto-start-reverse"
       inkscape:stockid="Stylized triangle arrow"
       markerWidth="1"
       markerHeight="1"
       viewBox="0 0 1 1"
       inkscape:isstock="true"
       inkscape:collect="always"
       preserveAspectRatio="xMidYMid"><path
         transform="scale(0.5)"
         style="fill:context-stroke;fill-rule:evenodd;stroke:context-stroke;stroke-width:1pt"
         d="m 6,0 c -3,1 -7,3 -9,5 0,0 0,-4 2,-5 -2,-1 -2,-5 -2,-5 2,2 6,4 9,5 z"
         id="path4" /></marker></defs><g
     inkscape:groupmode="layer"
     id="layer2"
     inkscape:label="Background"
     sodipodi:insensitive="true"><rect
       style="fill:#fff8e4;fill-opacity:1;stroke:none"
       id="rect1"
       width="1920"
       height="1080"
       x="0"
       y="0" /></g><g
     inkscape:label="Layer 1"
     inkscape:groupmode="layer"
     id="layer1"><g
       id="g14"
       transform="translate(899.14159)" /><text
       xml:space="preserve"
       style="font-style:normal;font-variant:normal;font-weight:normal;font-stretch:normal;font-size:93.3333px;font-family:'PT Sans';-inkscape-font-specification:'PT Sans';text-align:center;text-anchor:middle;fill:#000000;fill-opacity:1;stroke:none;stroke-width:5"
       x="-538.73993"
       y="143.77888"
       id="text6"
       transform="rotate(-90)"><tspan
         sodipodi:role="line"
         id="tspan6"
         x="-538.73993"
         y="143.77888"
         style="font-style:normal;font-variant:normal;font-weight:normal;font-stretch:normal;font-size:93.3333px;font-family:Philosopher;-inkscape-font-specification:Philosopher">STRUCTURE CLEARING</tspan></text><path
       style="fill:none;fill-opacity:1;stroke:#444444;stroke-width:20;stroke-dasharray:none;stroke-opacity:1"
       d="m 1090.985,768.76992 -598.50368,2.3e-4 V 130.55416 H 1674.146 v 638.21576 h -359.8091"
       id="path46"
       sodipodi:nodetypes="cccccc" /><g
       id="g7"
       transform="rotate(58.92434,306.53898,1159.8533)"><g
         id="g9"
         transform="translate(-261.48383,-66.086229)"><circle
           style="fill:#353bd9;fill-opacity:1;stroke:#444444;stroke-width:2;stroke-dasharray:none;stroke-opacity:1"
           id="circle2"
           cx="670.67352"
           cy="402.55746"
           r="32.238113" /><path
           style="fill:#444444;fill-opacity:1;stroke:none;stroke-width:5;stroke-dasharray:none;stroke-opacity:1"
           d="m 654.50582,374.66658 17.04258,-19.53993 15.29282,18.52497 -15.29282,-11.78554 z"
           id="path5"
           sodipodi:nodetypes="ccccc" /></g></g><g
       id="g8"
       transform="rotate(94.314537,964.40717,743.3501)"><circle
         style="fill:#e04756;fill-opacity:1;stroke:#444444;stroke-width:2;stroke-dasharray:none;stroke-opacity:1"
         id="circle3"
         cx="848.23694"
         cy="381.76309"
         r="32.238113" /><path
         style="fill:#444444;fill-opacity:1;stroke:none;stroke-width:5;stroke-dasharray:none;stroke-opacity:1"
         d="m 832.06924,353.87221 17.04258,-19.53993 15.29282,18.52497 -15.29282,-11.78554 z"
         id="path6"
         sodipodi:nodetypes="ccccc" /></g><g
       id="g12"
       transform="rotate(-105.19378,819.49096,281.35155)"><g
         id="g11"
         transform="translate(-261.48383,-66.086229)"><circle
           style="fill:#353bd9;fill-opacity:1;stroke:#444444;stroke-width:2;stroke-dasharray:none;stroke-opacity:1"
           id="circle10"
           cx="670.67352"
           cy="402.55746"
           r="32.238113" /><path
           style="fill:#444444;fill-opacity:1;stroke:none;stroke-width:5;stroke-dasharray:none;stroke-opacity:1"
           d="m 654.50582,374.66658 17.04258,-19.53993 15.29282,18.52497 -15.29282,-11.78554 z"
           id="path11"
           sodipodi:nodetypes="ccccc" /></g></g><g
       id="g13"
       transform="rotate(-57.463997,1507.0725,140.10851)"><circle
         style="fill:#e04756;fill-opacity:1;stroke:#444444;stroke-width:2;stroke-dasharray:none;stroke-opacity:1"
         id="circle12"
         cx="848.23694"
         cy="381.76309"
         r="32.238113" /><path
         style="fill:#444444;fill-opacity:1;stroke:none;stroke-width:5;stroke-dasharray:none;stroke-opacity:1"
         d="m 832.06924,353.87221 17.04258,-19.53993 15.29282,18.52497 -15.29282,-11.78554 z"
         id="path12"
         sodipodi:nodetypes="ccccc" /></g><g
       id="g48"
       transform="rotate(-24.975671,1124.2136,-251.82632)"><g
         id="g47"
         transform="translate(-261.48383,-66.086229)"><circle
           style="fill:#353bd9;fill-opacity:1;stroke:#444444;stroke-width:2;stroke-dasharray:none;stroke-opacity:1"
           id="circle46"
           cx="670.67352"
           cy="402.55746"
           r="32.238113" /><path
           style="fill:#444444;fill-opacity:1;stroke:none;stroke-width:5;stroke-dasharray:none;stroke-opacity:1"
           d="m 654.50582,374.66658 17.04258,-19.53993 15.29282,18.52497 -15.29282,-11.78554 z"
           id="path47"
           sodipodi:nodetypes="ccccc" /></g></g><g
       id="g49"
       transform="rotate(27.319835,863.01035,1861.1868)"><circle
         style="fill:#e04756;fill-opacity:1;stroke:#444444;stroke-width:2;stroke-dasharray:none;stroke-opacity:1"
         id="circle48"
         cx="848.23694"
         cy="381.76309"
         r="32.238113" /><path
         style="fill:#444444;fill-opacity:1;stroke:none;stroke-width:5;stroke-dasharray:none;stroke-opacity:1"
         d="m 832.06924,353.87221 17.04258,-19.53993 15.29282,18.52497 -15.29282,-11.78554 z"
         id="path48"
         sodipodi:nodetypes="ccccc" /></g><g
       id="g51"
       transform="rotate(102.77415,563.69689,385.86969)"><g
         id="g50"
         transform="translate(-261.48383,-66.086229)"><circle
           style="fill:#353bd9;fill-opacity:1;stroke:#444444;stroke-width:2;stroke-dasharray:none;stroke-opacity:1"
           id="circle49"
           cx="670.67352"
           cy="402.55746"
           r="32.238113" /><path
           style="fill:#444444;fill-opacity:1;stroke:none;stroke-width:5;stroke-dasharray:none;stroke-opacity:1"
           d="m 654.50582,374.66658 17.04258,-19.53993 15.29282,18.52497 -15.29282,-11.78554 z"
           id="path49"
           sodipodi:nodetypes="ccccc" /></g></g><g
       id="g52"
       transform="rotate(-109.63987,1146.9751,50.464666)"><circle
         style="fill:#e04756;fill-opacity:1;stroke:#444444;stroke-width:2;stroke-dasharray:none;stroke-opacity:1"
         id="circle51"
         cx="848.23694"
         cy="381.76309"
         r="32.238113" /><path
         style="fill:#444444;fill-opacity:1;stroke:none;stroke-width:5;stroke-dasharray:none;stroke-opacity:1"
         d="m 832.06924,353.87221 17.04258,-19.53993 15.29282,18.52497 -15.29282,-11.78554 z"
         id="path51"
         sodipodi:nodetypes="ccccc" /></g><path
       style="fill:none;fill-opacity:1;stroke:#444444;stroke-width:6;stroke-dasharray:none;stroke-opacity:1;marker-end:url(#ArrowTriangleStylized)"
       d="m 1135.7882,796.33457 c 38.2908,-38.5572 25.0901,-77.70831 -1.0632,-101.27353"
       id="path52"
       sodipodi:nodetypes="cc" /><path
       style="fill:none;fill-opacity:1;stroke:#444444;stroke-width:6;stroke-dasharray:none;stroke-opacity:1;marker-end:url(#ArrowTriangleStylized)"
       d="m 1281.0768,796.33457 c -38.2908,-38.5572 -42.1476,-77.70831 -15.9943,-101.27353"
       id="path53"
       sodipodi:nodetypes="cc" /><path
       style="fill:none;fill-opacity:1;stroke:#444444;stroke-width:6;stroke-dasharray:none;stroke-opacity:1;marker-end:url(#ArrowTriangleStylized)"
       d="m 908.01628,670.30748 c -34.79941,0 -79.93804,-15.46955 -123.76479,-48.30629"
       id="path54"
       sodipodi:nodetypes="cc" /><path
       style="fill:none;fill-opacity:1;stroke:#444444;stroke-width:6;stroke-dasharray:none;stroke-opacity:1;marker-end:url(#ArrowTriangleStylized)"
       d="M 698.0202,516.26769 C 664.09316,488.82143 586.52599,414.85539 618.02973,315.82311"
       id="path55"
       sodipodi:nodetypes="cc" /><path
       style="fill:none;fill-opacity:1;stroke:#444444;stroke-width:6;stroke-dasharray:none;stroke-opacity:1;marker-end:url(#ArrowTriangleStylized)"
       d="m 1573.0635,486.22944 c 38.8253,-45.23362 36.2101,-128.26211 6.8666,-200.82007"
       id="path56"
       sodipodi:nodetypes="cc" /><path
       style="fill:none;fill-opacity:1;stroke:#444444;stroke-width:6;stroke-dasharray:none;stroke-opacity:1;marker-end:url(#ArrowTriangleStylized)"
       d="m 1397.7909,647.21899 c 36.5672,-6.53068 82.1257,-17.85702 97.8453,-47.00479"
       id="path57"
       sodipodi:nodetypes="cc" /><g
       style="fill:#e2221c;fill-opacity:1;stroke:#f4f4f4;stroke-width:0.3;stroke-dasharray:none;stroke-opacity:1"
       id="g62"
       transform="matrix(3.8283351,0,0,3.8283351,1157.8863,739.28739)"><path
         opacity="0.4"
         d="M 21.7605,15.92 15.3605,4.4 C 14.5005,2.85 13.3105,2 12.0005,2 10.6905,2 9.50047,2.85 8.64047,4.4 l -6.4,11.52 c -0.81,1.47 -0.9,2.88 -0.25,3.99 0.65,1.11 1.93,1.72 3.61,1.72 H 18.4005 c 1.68,0 2.96,-0.61 3.61,-1.72 0.65,-1.11 0.56,-2.53 -0.25,-3.99 z"
         fill="#292d32"
         id="path1"
         style="fill:#e2221c;fill-opacity:1;stroke:#f4f4f4;stroke-width:0.3;stroke-dasharray:none;stroke-opacity:1" /><path
         d="m 12,14.75 c -0.41,0 -0.75,-0.34 -0.75,-0.75 V 9 c 0,-0.41 0.34,-0.75 0.75,-0.75 0.41,0 0.75,0.34 0.75,0.75 v 5 c 0,0.41 -0.34,0.75 -0.75,0.75 z"
         fill="#292d32"
         id="path2"
         style="fill:#e2221c;fill-opacity:1;stroke:#f4f4f4;stroke-width:0.3;stroke-dasharray:none;stroke-opacity:1" /><path
         d="m 12,18.0001 c -0.06,0 -0.13,-0.01 -0.2,-0.02 -0.06,-0.01 -0.12,-0.03 -0.18,-0.06 -0.06,-0.02 -0.12,-0.05 -0.18,-0.09 -0.05,-0.04 -0.1,-0.08 -0.15,-0.12 -0.18,-0.19 -0.29,-0.45 -0.29,-0.71 0,-0.26 0.11,-0.52 0.29,-0.71 0.05,-0.04 0.1,-0.08 0.15,-0.12 0.06,-0.04 0.12,-0.07 0.18,-0.09 0.06,-0.03 0.12,-0.05 0.18,-0.06 0.13,-0.03 0.27,-0.03 0.39,0 0.07,0.01 0.13,0.03 0.19,0.06 0.06,0.02 0.12,0.05 0.18,0.09 0.05,0.04 0.1,0.08 0.15,0.12 0.18,0.19 0.29,0.45 0.29,0.71 0,0.26 -0.11,0.52 -0.29,0.71 -0.05,0.04 -0.1,0.08 -0.15,0.12 -0.06,0.04 -0.12,0.07 -0.18,0.09 -0.06,0.03 -0.12,0.05 -0.19,0.06 -0.06,0.01 -0.13,0.02 -0.19,0.02 z"
         fill="#292d32"
         id="path3"
         style="fill:#e2221c;fill-opacity:1;stroke:#f4f4f4;stroke-width:0.3;stroke-dasharray:none;stroke-opacity:1" /></g><text
       xml:space="preserve"
       style="font-style:normal;font-variant:normal;font-weight:normal;font-stretch:normal;font-size:53.3333px;font-family:'PT Sans';-inkscape-font-specification:'PT Sans';text-align:start;text-anchor:start;fill:#cb231e;fill-opacity:1;stroke:none;stroke-width:10;stroke-dasharray:none;stroke-dashoffset:0;stroke-opacity:1"
       x="1063.851"
       y="934.87781"
       id="text65"><tspan
         sodipodi:role="line"
         id="tspan65"
         x="1063.851"
         y="934.87781"
         style="font-weight:bold">Fatal funnel!</tspan></text><g
       id="g70"
       transform="translate(-293.70766,297.33881)"><path
         id="rect69"
         style="fill:#f9f9f9;fill-opacity:1;stroke:#000000;stroke-width:3.52176;stroke-linecap:round;stroke-linejoin:round;stroke-opacity:1"
         d="m 820.67846,390.83825 35.06625,-49.15328 35.69277,49.7798 -35.06624,49.15334 z"
         sodipodi:nodetypes="ccccc" /><text
         xml:space="preserve"
         style="font-style:normal;font-variant:normal;font-weight:normal;font-stretch:normal;font-size:53.3333px;font-family:'PT Sans';-inkscape-font-specification:'PT Sans';text-align:start;text-anchor:start;fill:#000000;fill-opacity:1;stroke:none;stroke-width:10;stroke-dasharray:none;stroke-dashoffset:0;stroke-opacity:1"
         x="856.37799"
         y="410.13818"
         id="text66"><tspan
           sodipodi:role="line"
           id="tspan66"
           x="856.37799"
           y="410.13818"
           style="text-align:center;text-anchor:middle;fill:#000000;fill-opacity:1">1</tspan></text></g><g
       id="g71"
       transform="translate(-297.82501,-184.78965)"><path
         id="path70"
         style="fill:#f9f9f9;fill-opacity:1;stroke:#000000;stroke-width:3.52176;stroke-linecap:round;stroke-linejoin:round;stroke-opacity:1"
         d="m 820.67846,390.83825 35.06625,-49.15328 35.69277,49.7798 -35.06624,49.15334 z"
         sodipodi:nodetypes="ccccc" /><text
         xml:space="preserve"
         style="font-style:normal;font-variant:normal;font-weight:normal;font-stretch:normal;font-size:53.3333px;font-family:'PT Sans';-inkscape-font-specification:'PT Sans';text-align:start;text-anchor:start;fill:#000000;fill-opacity:1;stroke:none;stroke-width:10;stroke-dasharray:none;stroke-dashoffset:0;stroke-opacity:1"
         x="856.37799"
         y="410.13818"
         id="text70"><tspan
           sodipodi:role="line"
           id="tspan70"
           x="856.37799"
           y="410.13818"
           style="text-align:center;text-anchor:middle;fill:#000000;fill-opacity:1">2</tspan></text></g><g
       id="g72"
       transform="translate(180.69287,-3.3328332)"><path
         id="path71"
         style="fill:#f9f9f9;fill-opacity:1;stroke:#000000;stroke-width:3.52176;stroke-linecap:round;stroke-linejoin:round;stroke-opacity:1"
         d="m 820.67846,390.83825 35.06625,-49.15328 35.69277,49.7798 -35.06624,49.15334 z"
         sodipodi:nodetypes="ccccc" /><text
         xml:space="preserve"
         style="font-style:normal;font-variant:normal;font-weight:normal;font-stretch:normal;font-size:53.3333px;font-family:'PT Sans';-inkscape-font-specification:'PT Sans';text-align:start;text-anchor:start;fill:#000000;fill-opacity:1;stroke:none;stroke-width:10;stroke-dasharray:none;stroke-dashoffset:0;stroke-opacity:1"
         x="856.37799"
         y="410.13818"
         id="text71"><tspan
           sodipodi:role="line"
           id="tspan71"
           x="856.37799"
           y="410.13818"
           style="text-align:center;text-anchor:middle;fill:#000000;fill-opacity:1">3</tspan></text></g><g
       id="g73"
       transform="translate(487.74142,-107.32732)"><g
         id="g74"
         transform="translate(90.289014,-42.521335)"><path
           id="path72"
           style="fill:#f9f9f9;fill-opacity:1;stroke:#000000;stroke-width:3.52176;stroke-linecap:round;stroke-linejoin:round;stroke-opacity:1"
           d="m 820.67846,390.83825 35.06625,-49.15328 35.69277,49.7798 -35.06624,49.15334 z"
           sodipodi:nodetypes="ccccc" /><text
           xml:space="preserve"
           style="font-style:normal;font-variant:normal;font-weight:normal;font-stretch:normal;font-size:53.3333px;font-family:'PT Sans';-inkscape-font-specification:'PT Sans';text-align:start;text-anchor:start;fill:#000000;fill-opacity:1;stroke:none;stroke-width:10;stroke-dasharray:none;stroke-dashoffset:0;stroke-opacity:1"
           x="856.37799"
           y="410.13818"
           id="text72"><tspan
             sodipodi:role="line"
             id="tspan72"
             x="856.37799"
             y="410.13818"
             style="text-align:center;text-anchor:middle;fill:#000000;fill-opacity:1">4</tspan></text></g></g><text
       xml:space="preserve"
       style="font-style:normal;font-variant:normal;font-weight:normal;font-stretch:normal;font-size:53.3333px;font-family:'PT Sans';-inkscape-font-specification:'PT Sans';text-align:start;text-anchor:start;fill:#cb231e;fill-opacity:1;stroke:none;stroke-width:10;stroke-dasharray:none;stroke-dashoffset:0;stroke-opacity:1"
       x="1040.1711"
       y="1000.2921"
       id="text74"><tspan
         sodipodi:role="line"
         id="tspan74"
         x="1040.1711"
         y="1000.2921"
         style="font-weight:bold">KEEP MOVING!</tspan></text><g
       id="g76"
       transform="rotate(-4.8062353,4494.7684,-7377.3204)"><g
         id="g75"
         transform="translate(-261.48383,-66.086229)"><circle
           style="fill:#353bd9;fill-opacity:1;stroke:#444444;stroke-width:2;stroke-dasharray:none;stroke-opacity:1"
           id="circle74"
           cx="670.67352"
           cy="402.55746"
           r="32.238113" /><path
           style="fill:#444444;fill-opacity:1;stroke:none;stroke-width:5;stroke-dasharray:none;stroke-opacity:1"
           d="m 654.50582,374.66658 17.04258,-19.53993 15.29282,18.52497 -15.29282,-11.78554 z"
           id="path74"
           sodipodi:nodetypes="ccccc" /></g></g><path
       style="fill:#444444;fill-opacity:1;stroke:#000000;stroke-width:5;stroke-linecap:round;stroke-linejoin:round;stroke-dasharray:15, 15;stroke-dashoffset:0;stroke-opacity:1"
       d="M 1028.6484,622.33223 883.62822,520.17661"
       id="path76" /><path
       style="fill:#444444;fill-opacity:1;stroke:#000000;stroke-width:5;stroke-linecap:round;stroke-linejoin:round;stroke-dasharray:15, 15;stroke-dashoffset:0;stroke-opacity:1"
       d="M 1105.6053,622.33223 1250.6255,520.17661"
       id="path77" /><text
       xml:space="preserve"
       style="font-style:normal;font-variant:normal;font-weight:normal;font-stretch:normal;font-size:53.3333px;font-family:'PT Sans';-inkscape-font-specification:'PT Sans';text-align:start;text-anchor:start;fill:#cb231e;fill-opacity:1;stroke:none;stroke-width:10;stroke-dasharray:none;stroke-dashoffset:0;stroke-opacity:1"
       x="288.29703"
       y="917.32007"
       id="text77"><tspan
         sodipodi:role="line"
         id="tspan77"
         x="288.29703"
         y="917.32007"
         style="font-weight:normal">Move in predictable path</tspan></text><path
       style="fill:none;fill-opacity:1;stroke:#d65047;stroke-width:5;stroke-linecap:round;stroke-linejoin:round;stroke-dasharray:none;stroke-dashoffset:0;stroke-opacity:1;marker-end:url(#marker79)"
       d="m 836.40051,856.00555 c 0,0 68.50075,-34.79257 110.5724,-66.47603 42.07165,-31.68345 66.48919,-74.86353 66.48919,-74.86353"
       id="path78"
       sodipodi:nodetypes="csc" /></g></svg>
